<?xml version="1.0" encoding="iso-8859-1"?>
<!-- Generator: Adobe Illustrator 19.0.0, SVG Export Plug-In . SVG Version: 6.00 Build 0)  -->
<svg version="1.1" id="Capa_1" xmlns="http://www.w3.org/2000/svg" xmlns:xlink="http://www.w3.org/1999/xlink" x="0px" y="0px"
	 viewBox="0 0 512 512" style="enable-background:new 0 0 512 512;" xml:space="preserve">
<g>
	<g>
		<path d="M447.552,247.265c-2.856-3.285-6.996-5.171-11.348-5.171h-11.828l5.876-68.317c0.507-5.894-2.489-11.538-7.655-14.419
			c-5.166-2.882-11.543-2.468-16.291,1.062l-11.442,8.499l-5.65-41.247c-1.02-7.446-7.382-12.995-14.897-12.995h-22.2L326.406,69.49
			c-3.845-6.758-12.209-9.469-19.291-6.252l-7.171,3.259c-12.655-23.778-28.174-53.118-30.035-57.17C267.601,3.698,262.113,0,256,0
			c-6.113,0-11.601,3.698-13.909,9.326c-1.86,4.052-17.38,33.393-30.035,57.17l-7.171-3.259c-7.082-3.219-15.446-0.507-19.291,6.252
			l-25.709,45.186h-22.2c-7.516,0-13.877,5.549-14.897,12.995l-5.651,41.247l-11.442-8.499c-4.749-3.528-11.125-3.943-16.291-1.062
			c-5.166,2.882-8.163,8.525-7.655,14.419l5.876,68.317H75.796c-4.352,0-8.492,1.887-11.348,5.171
			c-2.856,3.285-4.148,7.646-3.541,11.958c0.259,1.84,6.635,45.579,32.78,89.752c33.606,56.777,84.378,88.163,147.277,91.285v16.057
			c0,30.704,24.98,55.684,55.684,55.684c8.304,0,15.036-6.732,15.036-15.036s-6.732-15.036-15.036-15.036
			c-14.123,0-25.612-11.489-25.612-25.612v-16.057c62.899-3.122,113.672-34.508,147.277-91.285
			c26.146-44.173,32.522-87.911,32.78-89.752C451.7,254.911,450.408,250.55,447.552,247.265z M240.965,255.233
			c-24.264-20.767-51.03-43.661-52.035-44.465c-6.486-5.19-15.946-4.138-21.135,2.347c-5.155,6.443-4.15,15.828,2.226,21.036
			c2.292,1.914,43.447,37.127,70.944,60.666v51.769c-31.912-27.314-75.808-64.871-77.23-66.009
			c-6.483-5.189-15.946-4.138-21.135,2.346c-5.161,6.45-4.149,15.848,2.244,21.053c3.069,2.552,69.956,59.796,96.12,82.193v23.998
			c-51.994-2.979-92.643-28.418-120.934-75.73c-13.929-23.294-21.664-46.921-25.648-62.272h9.627c4.212,0,8.231-1.767,11.078-4.87
			s4.263-7.258,3.902-11.454l-4.419-51.368l5.045,3.747c4.267,3.171,9.892,3.852,14.792,1.791c4.901-2.06,8.35-6.554,9.071-11.82
			l7.322-53.444h17.828c5.406,0,10.396-2.902,13.069-7.6l23.244-40.853l7.522,3.419c7.222,3.282,15.751,0.391,19.487-6.608
			c3.284-6.152,6.277-11.768,9.015-16.912v95.998c-24.329-20.818-24.877-21.257-25.081-21.419
			c-6.482-5.189-15.945-4.141-21.135,2.342c-5.149,6.432-4.156,15.8,2.193,21.014c1.691,1.417,27.028,23.097,44.022,37.646V255.233z
			 M391.97,334.439c-28.29,47.312-68.939,72.751-120.934,75.73V386.17c26.164-22.398,93.05-79.641,96.12-82.193
			c6.393-5.205,7.406-14.603,2.244-21.053c-5.188-6.484-14.65-7.534-21.135-2.346c-1.421,1.138-45.317,38.695-77.23,66.009v-51.769
			c27.497-23.538,68.651-58.752,70.944-60.666c6.376-5.208,7.382-14.594,2.226-21.036c-5.188-6.484-14.651-7.536-21.135-2.347
			c-1.004,0.803-27.77,23.698-52.035,44.465v-43.458c16.996-14.549,42.332-36.229,44.022-37.646
			c6.348-5.214,7.342-14.582,2.193-21.014c-5.19-6.483-14.652-7.532-21.135-2.342c-0.203,0.162-0.752,0.601-25.081,21.419v-96
			c2.738,5.143,5.731,10.761,9.015,16.912c3.736,6.998,12.264,9.89,19.487,6.608l7.522-3.419l23.244,40.853
			c2.673,4.699,7.663,7.6,13.069,7.6H361.2l7.322,53.444c0.722,5.267,4.171,9.76,9.071,11.82c4.901,2.059,10.524,1.378,14.792-1.791
			l5.045-3.747l-4.419,51.368c-0.361,4.196,1.055,8.351,3.902,11.454c2.848,3.103,6.866,4.87,11.078,4.87h9.627
			C413.632,287.521,405.897,311.146,391.97,334.439z"/>
	</g>
</g>
<g>
</g>
<g>
</g>
<g>
</g>
<g>
</g>
<g>
</g>
<g>
</g>
<g>
</g>
<g>
</g>
<g>
</g>
<g>
</g>
<g>
</g>
<g>
</g>
<g>
</g>
<g>
</g>
<g>
</g>
</svg>
