<svg id="Capa_1" enable-background="new 0 0 512 512" height="512" viewBox="0 0 512 512" width="512" xmlns="http://www.w3.org/2000/svg"><g><path d="m497 482h-15.821c1.156-47.22 8.589-94.024 22.177-139.316l7.012-23.374c1.836-6.118-.404-12.727-5.582-16.468-5.175-3.741-12.154-3.793-17.387-.131l-9.885 6.919c-24.609 17.226-45.177 38.929-60.917 63.586 9.417-66.71 30.6-131.657 62.611-191.106 3.339-6.2 1.915-13.887-3.423-18.48-5.337-4.593-13.15-4.856-18.784-.631-51.273 38.455-93.525 89.082-122.188 146.406-2.263 4.527-4.432 9.101-6.526 13.71 13.159-104.64 44.001-207.149 91.13-301.408 3.291-6.58 1.322-14.576-4.646-18.877-5.969-4.301-14.176-3.638-19.377 1.564l-2.009 2.009c-57.235 57.235-103.346 123.049-137.387 196.018-34.05-72.968-80.163-138.799-137.382-196.017l-2.01-2.01c-5.202-5.203-13.41-5.864-19.377-1.562-5.968 4.301-7.936 12.296-4.646 18.876 47.13 94.26 77.972 196.769 91.131 301.409-2.094-4.609-4.264-9.184-6.527-13.711-28.662-57.324-70.914-107.951-122.187-146.406-5.633-4.225-13.447-3.963-18.785.631-5.337 4.593-6.761 12.281-3.422 18.48 32.011 59.449 53.193 124.396 62.611 191.105-15.74-24.657-36.308-46.36-60.917-63.586l-9.885-6.919c-5.232-3.662-12.211-3.61-17.388.131s-7.417 10.35-5.582 16.468l7.012 23.374c13.589 45.292 21.021 92.097 22.177 139.316h-15.821c-8.284 0-15 6.716-15 15s6.716 15 15 15h482c8.284 0 15-6.716 15-15s-6.716-15-15-15zm-28.542-125.751c-10.52 41.127-16.324 83.281-17.308 125.751h-39.719c3.166-47.62 23.614-92.303 57.027-125.751zm-46.83-120.657c-26.711 69.038-40.628 142.877-40.628 217.056v29.352h-59.777c3.144-91.592 39.378-179.26 100.405-246.408zm-68.445-137.253c-14.702 38.893-26.893 78.742-36.442 119.197-7.944 33.651-14.042 67.744-18.319 102.065-7.083-26.931-15.827-53.494-26.209-79.618 21.214-50.752 48.303-98.14 80.97-141.644zm-194.454-.235c83.264 110.438 129.457 243.58 132.147 383.896h-69.876v-43.394c0-74.34-8.66-148.719-25.74-221.071-9.57-40.538-21.788-80.462-36.531-119.431zm-68.357 137.488c61.027 67.148 97.261 154.816 100.405 246.408h-59.777v-29.352c0-74.178-13.917-148.017-40.628-217.056zm-46.83 120.658c33.414 33.448 53.861 78.13 57.027 125.75h-39.719c-.984-42.47-6.788-84.623-17.308-125.75z"/></g></svg>