<svg id="Capa_1" enable-background="new 0 0 512.055 512.055" height="512" viewBox="0 0 512.055 512.055" width="512" xmlns="http://www.w3.org/2000/svg"><g><path d="m91.028 274.445c0 103.75 63.085 196.844 159.429 235.382l5.571 2.228 5.571-2.228c96.332-38.533 159.429-131.618 159.429-235.382v-33.445h30v-15c0-74.439-60.561-135-135-135h-45c0-49.92-40.429-91-90-91v30c33.084 0 60 27.365 60 61h-45c-74.439 0-135 60.561-135 135v15h30zm300 0c0 66.902-29.24 128.259-78.083 169.873 10.255-18.891 18.083-41.695 18.083-67.319h-30c0 42.947-29.517 77.652-44.999 92.898-15.494-15.257-45.001-49.957-45.001-92.897h-30c0 25.624 7.828 48.427 18.083 67.319-48.842-41.614-78.083-102.972-78.083-169.873v-34.316c22.669-2.602 44.322-11.039 62.939-24.409 7.832 35.249 31.113 66.574 65.353 83.695l6.708 3.354 6.708-3.354c32.754-16.378 57.163-46.836 65.353-83.695 18.618 13.369 40.271 21.806 62.939 24.409zm-195-153.445h120c52.805 0 96.631 39.183 103.932 90h-13.932c-29.876 0-58.563-13.216-78.707-36.258l-26.293-30.077v44.253c0 33.089-17.058 63.076-45 79.969-27.942-16.893-45-46.88-45-79.969v-44.253l-26.293 30.077c-20.144 23.042-48.831 36.258-78.707 36.258h-13.932c7.3-50.817 51.127-90 103.932-90z"/></g></svg>