<svg height="512pt" viewBox="-43 0 512 512.00162" width="512pt" xmlns="http://www.w3.org/2000/svg"><path d="m.421875 454.90625c3.171875 13.582031 21.988281 18.089844 44.535156 18.089844 21.183594-.433594 42.265625-3.121094 62.882813-8.011719 6.824218-1.570313 53.757812-12.800781 79.828125-29.6875v51.105469c0 14.136718 11.460937 25.597656 25.601562 25.597656 14.136719 0 25.597657-11.460938 25.597657-25.597656v-51.105469c26.070312 16.894531 73.011718 28.117187 79.820312 29.6875 20.609375 4.890625 41.679688 7.578125 62.859375 8.011719 22.5625 0 41.394531-4.523438 44.578125-18.125 4.351562-19.003906-26.0625-34.59375-51.421875-44.125 27.902344-8.140625 52.503906-20.617188 50.25-37.597656-1.5-11.265626-13.933594-18.542969-36.957031-21.660157-22.980469-2.492187-46.183594-2.050781-69.050782 1.316407-24.472656 3.25-59.453124 11-80.078124 23.320312v-38.136719c5.457031 1.304688 11.058593 1.917969 16.667968 1.828125 25.828125-1.351562 51.316406-6.527344 75.628906-15.359375 32.828126-11.324219 74.625-31.660156 84.371094-51.703125 2.308594-4.269531 2.78125-9.296875 1.304688-13.917968-5.863282-17.066407-35.644532-15.746094-60.1875-11.4375 20.351562-22.945313 36.132812-48.636719 24.40625-62.230469-17.5625-20.394531-71.054688 16.101562-99.839844 40.914062-15.574219 13.292969-29.765625 28.128907-42.351562 44.28125v-33.679687c22.691406-7.367188 52.132812-41.285156 69.121093-65.078125 22.09375-30.964844 53.613281-87.535157 31.675781-103.191407-16.109374-11.460937-43.621093 11.410157-65.859374 36.632813 7.242187-33.621094 11.347656-77.925781-.265626-96.230469-2.4375-4.222656-6.488281-7.269531-11.222656-8.4375-20.417968-4.472656-37.734375 31.632813-48.332031 65.328125-10.101563-27.160156-24.207031-54.175781-39.117187-62.410156-4.148438-2.53125-9.144532-3.265625-13.847657-2.039063-4.644531 1.429688-8.5 4.699219-10.675781 9.042969-9.445312 16.957031-5.042969 54.144531 2.558594 85.605469-20.417969-21.179688-43.3125-37.546875-57.410156-27.484375-21.941407 15.640625 9.582031 72.21875 31.675781 103.183594 14.882812 20.875 39.363281 49.496093 60.464843 61.210937v36.078125c-12.238281-15.640625-26.042968-29.992187-41.199218-42.828125-28.78125-24.746094-82.207032-61.320312-99.839844-40.875-12.515625 14.679688 6.964844 42.445313 24.464844 62.292969-24.507813-4.316406-54.304688-5.691406-60.148438 11.351563-1.515625 4.625-1.070312 9.671874 1.234375 13.960937 9.679688 20.042969 51.476563 40.394531 84.335938 51.726563 24.304687 8.78125 49.773437 13.921874 75.582031 15.257812 5.246094.0625 10.480469-.472656 15.605469-1.59375v37.9375c-20.625-12.320312-55.601563-20.070312-80.078125-23.320312-22.867188-3.367188-46.070313-3.808594-69.050782-1.316407-23.039062 3.117188-35.457031 10.394531-36.957031 21.660157-2.253906 16.980468 22.347657 29.457031 50.253907 37.597656-25.363282 9.539062-55.773438 25.128906-51.414063 44.160156zm212.847656 40.027344c-4.714843 0-8.535156-3.820313-8.535156-8.53125v-248.226563c3.476563.039063 6.875-1.019531 9.710937-3.03125 1.179688-.863281 2.234376-1.882812 3.132813-3.035156.898437 1.152344 1.953125 2.179687 3.132813 3.046875.339843.238281.742187.324219 1.089843.535156v250.710938c0 4.710937-3.820312 8.53125-8.53125 8.53125zm196.359375-44.261719c-3.703125 5.375-36.882812 9.320313-87.101562-2.320313-27.234375-5.246093-53.367188-15.148437-77.242188-29.269531 4.472656 1.195313 9.019532 2.097657 13.609375 2.695313 8.914063 1.140625 17.890625 1.683594 26.871094 1.632812 14.109375-.058594 28.195313-1.039062 42.171875-2.9375 4.53125-.605468 9.386719-1.363281 14.507812-2.269531 45.21875 12.320313 66.277344 27.871094 67.183594 32.46875zm-88.429687-80.953125c51.121093-6.828125 83.769531.3125 86.84375 5.3125-1.5625 6.34375-31.226563 21.726562-82.347657 28.527344-51.125 6.800781-83.695312-.296875-86.828124-5.296875v-.050781c1.65625-6.367188 31.292968-21.710938 82.332031-28.492188zm79.433593-105.671875c-.3125 6.53125-26.359374 27.511719-75.03125 44.308594-23.488281 8.796875-48.25 13.71875-73.320312 14.566406 5.613281-1.585937 11.074219-3.667969 16.316406-6.222656 20.605469-10.476563 39.792969-23.527344 57.105469-38.84375 2.824219-2.433594 5.8125-5.121094 8.859375-7.953125 39.984375-11.023438 63.214844-8.839844 66.070312-5.855469zm-108.328124-25.007813c35.761718-30.773437 64.9375-43.351562 73.710937-43.351562.652344-.027344 1.304687.082031 1.910156.324219 1.953125 5.589843-11.398437 29.996093-42.957031 59.539062l-.128906.117188c-3.25 3.039062-6.628906 6.121093-10.238282 9.25-38.980468 33.546875-70.179687 45.449219-75.5625 43.035156l-.058593-.050781c-.042969-.199219-.066407-.398438-.078125-.597656v-1.5625c1-9.15625 17.742187-36.011719 53.402344-66.703126zm36.605468-157.015624c.1875 0 .375.015624.554688.050781 3.570312 5.480469-5.441406 37.648437-35.394532 79.644531-28.089843 39.378906-53.972656 58.460938-61.859374 59.78125-.472657-.140625-.957032-.242188-1.449219-.296875-1.707031-3.363281.230469-14.277344 7.089843-30.199219.207032-.390625.378907-.792968.511719-1.210937 7.671875-16.867188 17.023438-32.917969 27.914063-47.90625 29.089844-40.789063 55.851562-59.878907 62.632812-59.878907zm-70.644531-65.117188c5.410156 3.652344 9.589844 36.785156-1.707031 87.132812-2.867188 12.902344-6.574219 25.605469-11.09375 38.027344-8.546875 12.808594-16.074219 26.273438-22.503906 40.265625-1.039063.855469-1.65625 1.1875-1.5 1.347657-5.359376-3.753907-9.53125-36.425782 1.550781-86.074219l-.289063-.066407c.113282-.320312.210938-.644531.289063-.972656h.257812c11.332031-50.238281 29.253907-78.464844 34.996094-79.660156zm-85.4375 87.5c-14.15625-49.492188-11.945313-82.882812-7.484375-86.679688 6.503906.613282 26.070312 27.691407 40.421875 77.566407.070313.195312.128906.425781.191406.648437-4.476562 20.089844-6.792969 40.601563-6.914062 61.183594-5.410157-9.214844-11.09375-17.917969-16.273438-25.164062-.425781-.605469-.921875-1.253907-1.363281-1.867188-3.125-8.269531-6.007812-16.90625-8.578125-25.6875zm-31.734375 57.292969c-29.953125-41.992188-38.964844-74.171875-35.984375-79.214844.277344-.070313.566406-.101563.851563-.09375 7.441406 0 32.8125 18.210937 60.742187 56.464844l.136719.179687c.691406.957032 1.382812 1.859375 2.070312 2.832032 10.75 14.824218 20.027344 30.660156 27.699219 47.285156.125.324218.265625.644531.429687.953125 7.429688 16.804687 9.53125 28.160156 7.859376 30.976562-1.429688.171875-2.878907-.058593-4.183594-.664062-.734375-.464844-1.539063-.8125-2.378906-1.023438-11.394532-5.554687-33.503907-24.40625-57.242188-57.695312zm-81.816406 34.851562c5.800781-3.046875 37.023437 8.839844 76.066406 42.453125 30.410156 26.171875 47.988281 50.277344 52.324219 63.078125v5.632813c-8.363281 1.074218-37.988281-11.324219-74.589844-42.863282-3.414063-2.886718-6.691406-5.863281-9.832031-8.832031-.242188-.230469-.5-.445312-.765625-.648437-33.425781-31.335938-44.46875-54.46875-43.203125-58.820313zm42.765625 111.785157c-48.636719-16.785157-74.65625-37.734376-75.160157-43.640626 3.0625-3.632812 26.316407-5.816406 66.3125 5.25 2.84375 2.644532 5.777344 5.308594 8.773438 7.859376 18.996094 16.367187 49.492188 38.398437 72.867188 44.867187-24.886719-.734375-49.480469-5.574219-72.792969-14.316406zm-83.625 67.414062c2.226562-4.054688 19.292969-8.816406 47.265625-8.816406 13.265625.058594 26.511718.984375 39.65625 2.773437 50.558594 6.726563 80.074218 21.828125 82.328125 27.605469v.34375c-3.574219 5.691406-36.085938 12.636719-86.828125 5.902344-51.121094-6.757813-80.785156-22.183594-82.4375-27.808594zm65.707031 42.453125c5.121094.90625 10 1.707031 14.507812 2.269531 13.976563 1.898438 28.0625 2.878906 42.171876 2.9375 8.980468.050782 17.957031-.492187 26.871093-1.632812 4.605469-.597656 9.164063-1.5 13.652344-2.695313-23.890625 14.125-50.035156 24.027344-77.285156 29.277344-50.203125 11.632813-83.378907 7.679687-86.921875 3.03125.734375-5.308594 21.742187-20.867187 66.945312-33.1875zm0 0"/></svg>