<?xml version="1.0" encoding="iso-8859-1"?>
<!-- Generator: Adobe Illustrator 17.1.0, SVG Export Plug-In . SVG Version: 6.00 Build 0)  -->
<!DOCTYPE svg PUBLIC "-//W3C//DTD SVG 1.1//EN" "http://www.w3.org/Graphics/SVG/1.1/DTD/svg11.dtd">
<svg version="1.1" id="Capa_1" xmlns="http://www.w3.org/2000/svg" xmlns:xlink="http://www.w3.org/1999/xlink" x="0px" y="0px"
	 viewBox="0 0 416.973 416.973" style="enable-background:new 0 0 416.973 416.973;" xml:space="preserve">
<path id="XMLID_808_" d="M356.407,416.973c4.418,0,8-3.582,8-8s-3.582-8-8-8h-93.936l18.041-42.096
	c0.896,0.088,1.797,0.146,2.704,0.146c1.106,0,2.219-0.066,3.333-0.199c5.033-0.6,9.705-2.524,13.631-5.55l38.903-28.236
	c5.948-4.317,9.838-10.746,10.952-18.103c1.02-6.735-0.492-13.685-4.147-19.368l13.712-10.259
	c11.777-8.814,14.578-25.227,6.713-37.403l13.71-10.257c5.94-4.445,9.797-10.957,10.86-18.337
	c0.807-5.606-0.077-11.184-2.494-16.146l23.628-55.138c1.74-4.061-0.141-8.764-4.203-10.504s-8.764,0.141-10.504,4.203
	L376.324,182.7c-2.778-1.456-5.818-2.446-9.022-2.907c-3.456-0.498-6.902-0.346-10.203,0.406l31.435-73.412
	c1.739-4.062-0.144-8.764-4.205-10.503c-4.06-1.739-8.763,0.144-10.503,4.205l-31.446,73.437c-1.735-2.926-4.011-5.542-6.772-7.714
	c-2.543-2.001-5.354-3.519-8.324-4.526l20.986-48.975c1.74-4.061-0.142-8.764-4.203-10.504c-4.062-1.74-8.764,0.141-10.504,4.203
	l-23.627,55.14c-12.472,3.971-20.807,16.37-19.202,29.838l2.029,17c-14.241,2.704-24.194,16.053-22.452,30.659l2.029,17.002
	c-14.241,2.704-24.193,16.052-22.451,30.658l5.699,47.756v-0.001c0.863,7.231,4.459,13.715,10.132,18.313l-20.656,48.199h-28.546
	v-118.5c7.023-1.991,12.882-6.534,16.522-12.839l24.047-41.651c3.709-6.425,4.689-13.93,2.759-21.132
	c-1.761-6.573-5.753-12.146-11.319-15.891l8.563-14.83c7.353-12.739,3.463-28.928-8.561-37.023l8.561-14.828
	c6.78-11.746,4.002-26.424-5.895-34.986V29.301c0-4.418-3.582-8-8-8s-8,3.582-8,8v53.283c-3.127-0.244-6.309,0.044-9.436,0.881
	c-3.383,0.906-6.499,2.409-9.241,4.407V8c0-4.418-3.582-8-8-8s-8,3.582-8,8v79.874c-5.388-3.93-12.043-5.81-18.678-5.287V29.301
	c0-4.418-3.582-8-8-8s-8,3.582-8,8v59.993c-9.896,8.564-12.673,23.241-5.893,34.985l8.561,14.827
	c-12.025,8.095-15.915,24.284-8.561,37.024l8.562,14.83c-5.598,3.784-9.724,9.577-11.44,16.169
	c-1.874,7.2-0.832,14.642,2.935,20.954l24.603,41.218c2.418,4.355,5.968,7.984,10.377,10.529c1.771,1.023,3.626,1.825,5.532,2.43
	v118.714h-28.609l-20.66-48.196c5.674-4.597,9.271-11.082,10.135-18.314v0l5.699-47.757c1.741-14.605-8.21-27.954-22.452-30.658
	l2.029-17.002c1.742-14.606-8.209-27.955-22.451-30.659l2.029-17.001c1.606-13.468-6.73-25.865-19.201-29.837l-23.628-55.141
	c-1.74-4.061-6.442-5.943-10.504-4.203c-4.061,1.74-5.943,6.443-4.203,10.504l20.986,48.977c-2.97,1.007-5.782,2.525-8.325,4.525
	c-2.77,2.18-5.053,4.807-6.791,7.746l-31.424-73.466c-1.738-4.063-6.438-5.947-10.501-4.209c-4.063,1.738-5.947,6.439-4.209,10.501
	l31.399,73.405c-3.288-0.743-6.721-0.893-10.166-0.396c-3.204,0.461-6.244,1.451-9.022,2.908l-20.986-48.976
	c-1.74-4.061-6.442-5.942-10.504-4.203c-4.061,1.74-5.943,6.443-4.203,10.504l23.629,55.145
	c-5.723,11.768-2.494,26.352,8.364,34.477l13.709,10.257c-7.864,12.175-5.063,28.588,6.714,37.403l13.712,10.258
	c-3.655,5.684-5.167,12.634-4.146,19.369c1.114,7.357,5.003,13.785,10.951,18.102l38.902,28.235
	c3.927,3.027,8.599,4.951,13.632,5.551c1.115,0.133,2.228,0.199,3.334,0.199c0.906,0,1.806-0.058,2.701-0.145l18.045,42.096H60.566
	c-4.418,0-8,3.582-8,8s3.582,8,8,8H356.407z M208.837,200.125l-0.319,0.553l-0.319-0.553c-1.698-2.942-3.883-5.496-6.439-7.592
	l20.935-36.261c1.573-2.724,4.132-4.678,7.207-5.501c3.074-0.824,6.268-0.412,8.99,1.161c5.663,3.27,7.61,10.537,4.342,16.198
	l-10.438,18.078c-2.346,0.021-4.707,0.336-7.037,0.96C218.555,189.099,212.546,193.7,208.837,200.125z M173.805,168.132
	c-3.269-5.663-1.321-12.93,4.34-16.199c5.663-3.268,12.93-1.321,16.199,4.34l4.937,8.553l-12.431,21.531
	c-0.87-0.09-1.74-0.14-2.608-0.148L173.805,168.132z M229.9,98.92c3.073-0.824,6.267-0.412,8.992,1.162
	c5.662,3.269,7.61,10.536,4.341,16.198l-10.437,18.077c-2.346,0.021-4.707,0.336-7.037,0.96c-7.203,1.93-13.212,6.531-16.921,12.956
	l-0.319,0.552l-0.319-0.553c-1.723-2.984-3.921-5.525-6.441-7.59l20.935-36.261C224.267,101.698,226.826,99.744,229.9,98.92z
	 M194.347,104.427l4.939,8.538l-12.434,21.536c-0.866-0.088-1.736-0.136-2.61-0.143l-10.438-18.078
	c-3.269-5.663-1.321-12.929,4.341-16.198C183.808,96.812,191.074,98.759,194.347,104.427z M172.555,211.159
	c0.819-3.147,2.804-5.766,5.589-7.374c2.726-1.573,5.918-1.986,8.993-1.162c3.074,0.824,5.632,2.777,7.206,5.502l4.938,8.551
	l-13.497,23.375l-12.039-20.169C172.191,217.28,171.768,214.182,172.555,211.159z M198.916,262.053l-0.127-0.212
	c-0.567-0.946-1.011-1.975-1.306-3.074c-0.824-3.074-0.412-6.267,1.161-8.991l24.049-41.651c1.573-2.724,4.131-4.677,7.206-5.501
	c1.035-0.277,2.083-0.415,3.123-0.415c2.048,0,4.062,0.533,5.869,1.576c2.724,1.573,4.678,4.132,5.502,7.207
	c0.824,3.074,0.411,6.267-1.161,8.991l-24.047,41.651c-1.573,2.724-4.132,4.678-7.206,5.502c-1.136,0.304-2.289,0.438-3.428,0.408
	c-0.011,0-0.021-0.002-0.031-0.002c-0.01,0-0.02,0.001-0.03,0.002c-1.921-0.06-3.803-0.589-5.502-1.57
	C201.309,265.005,199.926,263.66,198.916,262.053z M130.772,237.151l-2.474,20.729c-8.76,3.833-15.328,12.067-16.54,22.227
	l-0.076,0.634l-0.511-0.382c-2.72-2.035-5.735-3.522-8.91-4.441l4.96-41.575c0.775-6.493,6.69-11.142,13.18-10.371
	C126.895,224.746,131.547,230.659,130.772,237.151z M91.257,178.786c2.501-1.968,5.596-2.849,8.723-2.474
	c6.493,0.774,11.145,6.686,10.371,13.178l-2.474,20.729c-8.758,3.833-15.327,12.067-16.541,22.226l-0.076,0.634l-0.511-0.382
	c-2.759-2.065-5.78-3.535-8.91-4.441l4.961-41.575C87.174,183.558,88.756,180.754,91.257,178.786z M44.145,200.238
	c1.884-2.519,4.656-4.156,7.806-4.609c3.152-0.454,6.273,0.334,8.739,2.179l7.948,6.049l-2.934,24.589
	c-0.831,0.26-1.65,0.559-2.455,0.897l-16.714-12.505C41.299,212.92,40.227,205.475,44.145,200.238z M64.567,247.898
	c3.918-5.234,11.362-6.308,16.598-2.391l7.907,5.916l-2.946,24.687c-0.835,0.26-1.654,0.556-2.455,0.891l-16.713-12.503
	C61.723,260.58,60.651,253.133,64.567,247.898z M82.756,304.54c-0.487-3.215,0.306-6.404,2.234-8.981
	c1.884-2.519,4.657-4.156,7.807-4.609c3.149-0.455,6.272,0.334,8.792,2.219l7.906,5.915l-3.198,26.802l-19.011-13.798
	C84.832,310.308,83.224,307.627,82.756,304.54z M127.031,340.935l-0.194-0.141c-0.895-0.647-1.71-1.418-2.414-2.314
	c-1.968-2.501-2.847-5.599-2.474-8.722l5.699-47.756c0.717-6.017,5.849-10.453,11.766-10.453c0.466,0,0.938,0.028,1.412,0.084
	c6.493,0.775,11.146,6.687,10.371,13.178l-5.699,47.756c-0.373,3.124-1.955,5.928-4.456,7.896c-0.927,0.729-1.937,1.307-2.999,1.728
	c-0.01,0.004-0.02,0.007-0.029,0.011c-0.007,0.003-0.014,0.007-0.021,0.01c-1.79,0.701-3.727,0.955-5.674,0.723
	C130.393,342.707,128.592,342.015,127.031,340.935z M316.993,176.313c3.12-0.375,6.221,0.505,8.722,2.474
	c2.501,1.968,4.083,4.771,4.456,7.895l4.96,41.575c-3.175,0.919-6.19,2.406-8.91,4.441l-0.51,0.382l-0.076-0.634
	c-1.213-10.158-7.782-18.392-16.539-22.225l-2.474-20.728C305.848,182.999,310.5,177.086,316.993,176.313z M296.57,223.972
	c1.216-0.145,2.412-0.1,3.558,0.112c0.06,0.013,0.119,0.031,0.18,0.042c4.886,0.985,8.819,5.004,9.441,10.215l4.961,41.576
	c-3.176,0.919-6.19,2.406-8.91,4.441l-0.51,0.382l-0.076-0.633c-1.211-10.16-7.78-18.396-16.541-22.228l-2.473-20.727
	C285.426,230.659,290.078,224.746,296.57,223.972z M278.971,342.21c-0.005-0.002-0.01-0.005-0.016-0.008
	c-0.004-0.002-0.009-0.003-0.013-0.005c-1.066-0.422-2.08-1.002-3.01-1.734c-2.501-1.968-4.083-4.772-4.456-7.896c0,0,0,0,0,0
	l-5.699-47.756c-0.774-6.492,3.878-12.403,10.369-13.178c0.475-0.057,0.946-0.084,1.413-0.084c5.917,0,11.049,4.437,11.767,10.454
	l5.698,47.757c0.373,3.123-0.506,6.22-2.474,8.721c-0.704,0.896-1.52,1.668-2.415,2.314l-0.193,0.14
	c-1.561,1.08-3.363,1.772-5.288,2.002C282.703,343.169,280.762,342.914,278.971,342.21z M334.216,304.539
	c-0.468,3.088-2.076,5.769-4.53,7.549l-19.01,13.798l-3.198-26.801l7.907-5.916c2.52-1.885,5.641-2.674,8.791-2.219
	c3.15,0.454,5.922,2.091,7.807,4.61C333.91,298.135,334.703,301.324,334.216,304.539z M350.015,264.497l-16.714,12.505
	c-0.801-0.335-1.62-0.631-2.455-0.891l-2.946-24.687l7.906-5.916c2.519-1.885,5.639-2.674,8.791-2.219
	c3.15,0.454,5.922,2.09,7.807,4.609C356.322,253.134,355.25,260.58,350.015,264.497z M375.047,209.03
	c-0.454,3.15-2.091,5.923-4.609,7.807l-16.713,12.504c-0.801-0.335-1.621-0.631-2.457-0.891l-2.941-24.647l7.903-5.956
	c2.519-1.884,5.639-2.671,8.791-2.219c3.15,0.454,5.922,2.091,7.807,4.611C374.713,202.758,375.501,205.879,375.047,209.03z"/>
<g>
</g>
<g>
</g>
<g>
</g>
<g>
</g>
<g>
</g>
<g>
</g>
<g>
</g>
<g>
</g>
<g>
</g>
<g>
</g>
<g>
</g>
<g>
</g>
<g>
</g>
<g>
</g>
<g>
</g>
</svg>
